<svg version="1.0" xmlns="http://www.w3.org/2000/svg" viewBox="0 0 100 100">
    <path fill="#f25081" d="M44.5 5.5C37 8.2 31.3 17.1 32.7 24.1l.6 2.9-2.9-1.5c-4.4-2.3-11.1-1.9-15.8.9-7.2 4.2-10.5 13.5-7.5 21.3C8.7 52 14 56.9 18.2 58.1l3.8 1-2.5 3.4c-4.9 6.3-4.5 15.1.8 21.2 5.1 5.8 12.5 7.8 19.4 5.2 3.3-1.2 9.3-6.8 9.3-8.6 0-2.2 1.4-1.4 2.7 1.4 2.6 5.7 11.2 9.3 18.8 7.9 4.6-.9 11-6.7 12.6-11.3 1.6-5.1.6-11.7-2.5-15.8L78 59.1l3.8-1c4.2-1.2 9.5-6.1 11.1-10.4 3-7.9-.3-17.1-7.7-21.4-3.5-2.1-5.2-2.5-9.5-2.1-2.9.3-5.9.8-6.8 1.2-1.3.6-1.6-.1-1.6-3.7-.2-7.8-5.4-14.5-13.1-16.7-4.6-1.2-4.8-1.2-9.7.5zM53.1 28c1.2.7 1.9 2.1 1.9 3.9 0 3.2-3.9 14.1-5 14.1s-5-10.9-5-14c0-4.2 4-6.2 8.1-4zM37 40.7c1.4.9 4 3 5.8 4.7 2.9 2.7 3.1 3.1 1.5 3.8-3.6 1.4-12.6.9-14.5-.9-2.2-2-2.3-5.1-.1-7.5 2-2.2 4.1-2.3 7.3-.1zm33.2 0c2.2 2 2.3 5.1.1 7.5-1.2 1.3-3 1.8-7.2 1.7-3.1 0-6.4-.4-7.4-.7-1.6-.7-1.4-1.1 1.5-3.8 7-6.6 9.8-7.6 13-4.7zM48 53.5c0 .3-.7 3.5-1.6 7.1-1.2 4.7-2.4 7-4.1 8.1-4.5 3-9.9-1.9-7.3-6.7 1.6-3 13-10.4 13-8.5zm10.5 2.9c2.9 1.9 5.9 4.4 6.5 5.6 2.6 4.8-2.8 9.7-7.3 6.7-1.7-1.1-2.9-3.4-4.1-8.1-.9-3.6-1.6-6.8-1.6-7.1 0-1 1.1-.5 6.5 2.9z" />
</svg>